<mxfile host="app.diagrams.net" modified="2021-10-19T08:08:27.557Z" agent="5.0 (Windows NT 10.0; Win64; x64) AppleWebKit/537.36 (KHTML, like Gecko) Chrome/92.0.4515.159 Safari/537.36" etag="Bj6KxBxY2XD5D8nN_fgU" version="15.5.5" type="github">
  <diagram id="VQgYGTnuXl5FRPp1sjA2" name="Page-1">
    <mxGraphModel dx="1038" dy="547" grid="1" gridSize="10" guides="1" tooltips="1" connect="1" arrows="1" fold="1" page="1" pageScale="1" pageWidth="827" pageHeight="1169" math="0" shadow="0">
      <root>
        <mxCell id="0" />
        <mxCell id="1" parent="0" />
        <mxCell id="TE5UsMQ6kL4BWdmrjtmg-3" value="" style="edgeStyle=orthogonalEdgeStyle;rounded=0;orthogonalLoop=1;jettySize=auto;html=1;" edge="1" parent="1" source="TE5UsMQ6kL4BWdmrjtmg-1" target="TE5UsMQ6kL4BWdmrjtmg-2">
          <mxGeometry relative="1" as="geometry" />
        </mxCell>
        <mxCell id="TE5UsMQ6kL4BWdmrjtmg-1" value="solidity合约" style="rounded=0;whiteSpace=wrap;html=1;" vertex="1" parent="1">
          <mxGeometry x="30" y="340" width="70" height="60" as="geometry" />
        </mxCell>
        <mxCell id="TE5UsMQ6kL4BWdmrjtmg-5" value="" style="edgeStyle=orthogonalEdgeStyle;rounded=0;orthogonalLoop=1;jettySize=auto;html=1;" edge="1" parent="1" source="TE5UsMQ6kL4BWdmrjtmg-2" target="TE5UsMQ6kL4BWdmrjtmg-4">
          <mxGeometry relative="1" as="geometry" />
        </mxCell>
        <mxCell id="TE5UsMQ6kL4BWdmrjtmg-2" value="字节码" style="rounded=0;whiteSpace=wrap;html=1;" vertex="1" parent="1">
          <mxGeometry x="150" y="340" width="70" height="60" as="geometry" />
        </mxCell>
        <mxCell id="TE5UsMQ6kL4BWdmrjtmg-16" value="" style="edgeStyle=orthogonalEdgeStyle;rounded=0;orthogonalLoop=1;jettySize=auto;html=1;entryX=-0.011;entryY=0.401;entryDx=0;entryDy=0;entryPerimeter=0;" edge="1" parent="1" source="TE5UsMQ6kL4BWdmrjtmg-4" target="TE5UsMQ6kL4BWdmrjtmg-11">
          <mxGeometry relative="1" as="geometry" />
        </mxCell>
        <mxCell id="TE5UsMQ6kL4BWdmrjtmg-4" value="数据预处理" style="rounded=0;whiteSpace=wrap;html=1;" vertex="1" parent="1">
          <mxGeometry x="280" y="340" width="70" height="60" as="geometry" />
        </mxCell>
        <mxCell id="TE5UsMQ6kL4BWdmrjtmg-8" value="" style="edgeStyle=orthogonalEdgeStyle;rounded=0;orthogonalLoop=1;jettySize=auto;html=1;" edge="1" parent="1" source="TE5UsMQ6kL4BWdmrjtmg-6" target="TE5UsMQ6kL4BWdmrjtmg-7">
          <mxGeometry relative="1" as="geometry" />
        </mxCell>
        <mxCell id="TE5UsMQ6kL4BWdmrjtmg-6" value="漏洞合约数据库" style="shape=cylinder3;whiteSpace=wrap;html=1;boundedLbl=1;backgroundOutline=1;size=15;" vertex="1" parent="1">
          <mxGeometry x="335" y="70" width="60" height="80" as="geometry" />
        </mxCell>
        <mxCell id="TE5UsMQ6kL4BWdmrjtmg-10" value="" style="edgeStyle=orthogonalEdgeStyle;rounded=0;orthogonalLoop=1;jettySize=auto;html=1;" edge="1" parent="1" source="TE5UsMQ6kL4BWdmrjtmg-7" target="TE5UsMQ6kL4BWdmrjtmg-9">
          <mxGeometry relative="1" as="geometry" />
        </mxCell>
        <mxCell id="TE5UsMQ6kL4BWdmrjtmg-7" value="模型训练" style="whiteSpace=wrap;html=1;" vertex="1" parent="1">
          <mxGeometry x="450" y="80" width="80" height="60" as="geometry" />
        </mxCell>
        <mxCell id="TE5UsMQ6kL4BWdmrjtmg-12" value="" style="edgeStyle=orthogonalEdgeStyle;rounded=0;orthogonalLoop=1;jettySize=auto;html=1;" edge="1" parent="1" source="TE5UsMQ6kL4BWdmrjtmg-9" target="TE5UsMQ6kL4BWdmrjtmg-11">
          <mxGeometry relative="1" as="geometry" />
        </mxCell>
        <mxCell id="TE5UsMQ6kL4BWdmrjtmg-9" value="模型载入" style="whiteSpace=wrap;html=1;" vertex="1" parent="1">
          <mxGeometry x="450" y="190" width="80" height="60" as="geometry" />
        </mxCell>
        <mxCell id="TE5UsMQ6kL4BWdmrjtmg-18" value="" style="edgeStyle=orthogonalEdgeStyle;rounded=0;orthogonalLoop=1;jettySize=auto;html=1;" edge="1" parent="1" source="TE5UsMQ6kL4BWdmrjtmg-11" target="TE5UsMQ6kL4BWdmrjtmg-17">
          <mxGeometry relative="1" as="geometry">
            <Array as="points">
              <mxPoint x="600" y="370" />
              <mxPoint x="600" y="370" />
            </Array>
          </mxGeometry>
        </mxCell>
        <mxCell id="TE5UsMQ6kL4BWdmrjtmg-11" value="" style="whiteSpace=wrap;html=1;" vertex="1" parent="1">
          <mxGeometry x="400" y="310" width="180" height="150" as="geometry" />
        </mxCell>
        <mxCell id="TE5UsMQ6kL4BWdmrjtmg-13" value="静态分析" style="rounded=0;whiteSpace=wrap;html=1;" vertex="1" parent="1">
          <mxGeometry x="455" y="320" width="70" height="30" as="geometry" />
        </mxCell>
        <mxCell id="TE5UsMQ6kL4BWdmrjtmg-14" value="动态分析" style="rounded=0;whiteSpace=wrap;html=1;" vertex="1" parent="1">
          <mxGeometry x="455" y="370" width="70" height="30" as="geometry" />
        </mxCell>
        <mxCell id="TE5UsMQ6kL4BWdmrjtmg-15" value="深度学习分类" style="rounded=0;whiteSpace=wrap;html=1;" vertex="1" parent="1">
          <mxGeometry x="455" y="420" width="75" height="30" as="geometry" />
        </mxCell>
        <mxCell id="TE5UsMQ6kL4BWdmrjtmg-20" value="" style="edgeStyle=orthogonalEdgeStyle;rounded=0;orthogonalLoop=1;jettySize=auto;html=1;" edge="1" parent="1" source="TE5UsMQ6kL4BWdmrjtmg-17" target="TE5UsMQ6kL4BWdmrjtmg-19">
          <mxGeometry relative="1" as="geometry" />
        </mxCell>
        <mxCell id="TE5UsMQ6kL4BWdmrjtmg-17" value="显示检测报告" style="whiteSpace=wrap;html=1;" vertex="1" parent="1">
          <mxGeometry x="670" y="340" width="80" height="62.5" as="geometry" />
        </mxCell>
        <mxCell id="TE5UsMQ6kL4BWdmrjtmg-22" value="" style="edgeStyle=orthogonalEdgeStyle;rounded=0;orthogonalLoop=1;jettySize=auto;html=1;" edge="1" parent="1" source="TE5UsMQ6kL4BWdmrjtmg-19">
          <mxGeometry relative="1" as="geometry">
            <mxPoint x="610" y="513.75" as="targetPoint" />
          </mxGeometry>
        </mxCell>
        <mxCell id="TE5UsMQ6kL4BWdmrjtmg-19" value="符合某类漏洞" style="rhombus;whiteSpace=wrap;html=1;" vertex="1" parent="1">
          <mxGeometry x="670" y="473.75" width="80" height="80" as="geometry" />
        </mxCell>
        <mxCell id="TE5UsMQ6kL4BWdmrjtmg-23" value="漏洞合约数据库" style="shape=cylinder3;whiteSpace=wrap;html=1;boundedLbl=1;backgroundOutline=1;size=15;" vertex="1" parent="1">
          <mxGeometry x="550" y="473.75" width="60" height="80" as="geometry" />
        </mxCell>
        <mxCell id="TE5UsMQ6kL4BWdmrjtmg-24" value="是" style="text;html=1;strokeColor=none;fillColor=none;align=center;verticalAlign=middle;whiteSpace=wrap;rounded=0;" vertex="1" parent="1">
          <mxGeometry x="620" y="490" width="60" height="30" as="geometry" />
        </mxCell>
      </root>
    </mxGraphModel>
  </diagram>
</mxfile>
